<svg width="16" height="19" viewBox="0 0 16 19" fill="none" xmlns="http://www.w3.org/2000/svg">
<path d="M2.23544 5.5119C1.94671 3.78066 3.14847 2.20003 5.01117 1.60065C5.34181 1.49402 5.70067 1.51751 6.01458 1.66635C6.32849 1.81519 6.57381 2.07816 6.70051 2.40164L7.32422 3.99463C7.42465 4.25097 7.44618 4.53147 7.38604 4.80013C7.3259 5.06879 7.18684 5.31334 6.98671 5.5024L5.22607 7.16519C5.13924 7.24736 5.07516 7.35061 5.04006 7.46489C5.00496 7.57917 5.00004 7.70059 5.02577 7.81733L5.04271 7.8889L5.08957 8.06846C5.13118 8.22047 5.19373 8.43364 5.28104 8.68718C5.45426 9.19222 5.7288 9.87048 6.13244 10.5461C6.53609 11.2225 7.00298 11.7854 7.36514 12.1778C7.55376 12.3818 7.75065 12.5779 7.95534 12.7657L8.01132 12.8153C8.1017 12.8932 8.21071 12.9463 8.32773 12.9695C8.44474 12.9927 8.56578 12.9852 8.67903 12.9477L10.9786 12.1865C11.2398 12.1 11.5208 12.0935 11.7857 12.1679C12.0507 12.2422 12.2873 12.394 12.4654 12.6037L13.578 13.9153C14.0419 14.461 14.0001 15.273 13.4832 15.769C12.071 17.1255 10.1058 17.428 8.71964 16.347C7.02044 15.0174 5.58046 13.3864 4.47165 11.5355C3.35384 9.68624 2.59515 7.6426 2.23544 5.5119ZM6.47364 7.88708L7.93527 6.50633C8.33527 6.1282 8.61318 5.63918 8.73333 5.10201C8.85348 4.56484 8.8104 4.00402 8.6096 3.4915L7.98521 1.89852C7.73046 1.24767 7.23709 0.718481 6.60567 0.418816C5.97425 0.119152 5.25231 0.0715752 4.58702 0.285785C2.27484 1.03201 0.440012 3.14203 0.873457 5.73923C1.17652 7.55244 1.84801 9.85468 3.28811 12.2478C4.48412 14.2435 6.03719 16.002 7.86971 17.4356C9.94825 19.0561 12.6838 18.4521 14.44 16.7652C14.9422 16.2828 15.2417 15.627 15.2772 14.9315C15.3127 14.2359 15.0817 13.553 14.6311 13.022L13.5185 11.7104C13.1624 11.2906 12.6889 10.9869 12.159 10.8381C11.629 10.6893 11.0667 10.7022 10.5441 10.8752L8.63562 11.5071C8.56131 11.4322 8.47435 11.343 8.3796 11.2401C7.97907 10.81 7.6234 10.3402 7.31811 9.838C7.02065 9.33119 6.77555 8.79543 6.58658 8.239C6.54653 8.12247 6.50888 8.00514 6.47364 7.88708Z" fill="white"/>
</svg>
