<svg width="25" height="24" viewBox="0 0 25 24" fill="none" xmlns="http://www.w3.org/2000/svg">
<path d="M4.36799 13H10.416C10.6833 13 10.9397 12.8946 11.1287 12.7071C11.3178 12.5196 11.424 12.2652 11.424 12V4C11.424 3.73478 11.3178 3.48043 11.1287 3.29289C10.9397 3.10536 10.6833 3 10.416 3H4.36799C4.10065 3 3.84426 3.10536 3.65522 3.29289C3.46618 3.48043 3.35999 3.73478 3.35999 4V12C3.35999 12.2652 3.46618 12.5196 3.65522 12.7071C3.84426 12.8946 4.10065 13 4.36799 13ZM3.35999 20C3.35999 20.2652 3.46618 20.5196 3.65522 20.7071C3.84426 20.8946 4.10065 21 4.36799 21H10.416C10.6833 21 10.9397 20.8946 11.1287 20.7071C11.3178 20.5196 11.424 20.2652 11.424 20V16C11.424 15.7348 11.3178 15.4804 11.1287 15.2929C10.9397 15.1054 10.6833 15 10.416 15H4.36799C4.10065 15 3.84426 15.1054 3.65522 15.2929C3.46618 15.4804 3.35999 15.7348 3.35999 16V20ZM13.44 20C13.44 20.2652 13.5462 20.5196 13.7352 20.7071C13.9243 20.8946 14.1806 21 14.448 21H20.496C20.7633 21 21.0197 20.8946 21.2087 20.7071C21.3978 20.5196 21.504 20.2652 21.504 20V13C21.504 12.7348 21.3978 12.4804 21.2087 12.2929C21.0197 12.1054 20.7633 12 20.496 12H14.448C14.1806 12 13.9243 12.1054 13.7352 12.2929C13.5462 12.4804 13.44 12.7348 13.44 13V20ZM14.448 10H20.496C20.7633 10 21.0197 9.89464 21.2087 9.70711C21.3978 9.51957 21.504 9.26522 21.504 9V4C21.504 3.73478 21.3978 3.48043 21.2087 3.29289C21.0197 3.10536 20.7633 3 20.496 3H14.448C14.1806 3 13.9243 3.10536 13.7352 3.29289C13.5462 3.48043 13.44 3.73478 13.44 4V9C13.44 9.26522 13.5462 9.51957 13.7352 9.70711C13.9243 9.89464 14.1806 10 14.448 10Z" fill="var(--ci-primary-color, currentColor)"/>
</svg>
