<svg width="21" height="21" viewBox="0 0 21 21" fill="none" xmlns="http://www.w3.org/2000/svg">
<path d="M6.23438 7.875C7.14047 7.875 7.875 7.14047 7.875 6.23438C7.875 5.32828 7.14047 4.59375 6.23438 4.59375C5.32828 4.59375 4.59375 5.32828 4.59375 6.23438C4.59375 7.14047 5.32828 7.875 6.23438 7.875Z" fill="var(--ci-primary-color, currentColor)"/>
<path d="M6.23438 16.4062C7.14047 16.4062 7.875 15.6717 7.875 14.7656C7.875 13.8595 7.14047 13.125 6.23438 13.125C5.32828 13.125 4.59375 13.8595 4.59375 14.7656C4.59375 15.6717 5.32828 16.4062 6.23438 16.4062Z" fill="var(--ci-primary-color, currentColor)"/>
<path d="M14.7656 16.4062C15.6717 16.4062 16.4062 15.6717 16.4062 14.7656C16.4062 13.8595 15.6717 13.125 14.7656 13.125C13.8595 13.125 13.125 13.8595 13.125 14.7656C13.125 15.6717 13.8595 16.4062 14.7656 16.4062Z" fill="var(--ci-primary-color, currentColor)"/>
<path d="M18.375 1.3125H2.625C2.27701 1.31285 1.94337 1.45124 1.69731 1.69731C1.45124 1.94337 1.31285 2.27701 1.3125 2.625V18.375C1.31285 18.723 1.45124 19.0566 1.69731 19.3027C1.94337 19.5488 2.27701 19.6872 2.625 19.6875H18.375C18.723 19.6872 19.0566 19.5488 19.3027 19.3027C19.5488 19.0566 19.6872 18.723 19.6875 18.375V2.625C19.6872 2.27701 19.5488 1.94337 19.3027 1.69731C19.0566 1.45124 18.723 1.31285 18.375 1.3125ZM18.375 9.84375H11.1562V2.625H18.375V9.84375ZM9.84375 2.625V9.84375H2.625V2.625H9.84375ZM2.625 11.1562H9.84375V18.375H2.625V11.1562ZM11.1562 18.375V11.1562H18.375V18.375H11.1562Z" fill="white"/>
</svg>
